<?xml version="1.0" encoding="utf-8"?>
<!-- Generator: Adobe Illustrator 15.0.0, SVG Export Plug-In . SVG Version: 6.00 Build 0)  -->
<!DOCTYPE svg PUBLIC "-//W3C//DTD SVG 1.1//EN" "http://www.w3.org/Graphics/SVG/1.1/DTD/svg11.dtd">
<svg version="1.1" id="Слой_1" xmlns="http://www.w3.org/2000/svg" xmlns:xlink="http://www.w3.org/1999/xlink" x="0px" y="0px"
	 width="16px" height="16px" viewBox="0 0 16 16" enable-background="new 0 0 16 16" xml:space="preserve">
<g opacity="0.9">
	<path fill="#A7A7A7" d="M2.5,12H11c0.275,0,0.5,0.225,0.5,0.5S11.275,13,11,13H2.5C2.224,13,2,12.775,2,12.5S2.224,12,2.5,12z
		 M10.5,9.5V4.707L8.854,6.354c-0.193,0.195-0.512,0.195-0.707,0s-0.195-0.512,0-0.707l2.5-2.5c0.049-0.048,0.104-0.084,0.162-0.108
		C10.867,3.015,10.93,3,10.997,3H11c0.139,0,0.264,0.057,0.354,0.146l0,0l2.5,2.5c0.195,0.195,0.195,0.512,0,0.707
		c-0.193,0.195-0.512,0.195-0.707,0L11.5,4.707V9.5c0,0.275-0.225,0.5-0.5,0.5S10.5,9.775,10.5,9.5z M7,9c0.276,0,0.5-0.225,0.5-0.5
		C7.5,8.224,7.276,8,7,8H2.5C2.224,8,2,8.224,2,8.5C2,8.775,2.224,9,2.5,9H7z M6,5c0.276,0,0.5-0.224,0.5-0.5S6.276,4,6,4H2.5
		C2.224,4,2,4.224,2,4.5S2.224,5,2.5,5H6z"/>
</g>
</svg>
