<?xml version="1.0" encoding="utf-8"?>
<!-- Generator: Adobe Illustrator 15.0.0, SVG Export Plug-In . SVG Version: 6.00 Build 0)  -->
<!DOCTYPE svg PUBLIC "-//W3C//DTD SVG 1.1//EN" "http://www.w3.org/Graphics/SVG/1.1/DTD/svg11.dtd">
<svg version="1.1" id="Слой_1" xmlns="http://www.w3.org/2000/svg" xmlns:xlink="http://www.w3.org/1999/xlink" x="0px" y="0px"
	 width="16px" height="16px" viewBox="0 0 16 16" enable-background="new 0 0 16 16" xml:space="preserve">
<g opacity="0.9">
	<path fill="#A7A7A7" d="M2,4.5C2,4.224,2.225,4,2.5,4H11c0.275,0,0.5,0.224,0.5,0.5S11.275,5,11,5H2.5C2.225,5,2,4.776,2,4.5z
		 M11,7c0.275,0,0.5,0.224,0.5,0.5v4.793l1.646-1.646c0.194-0.194,0.512-0.194,0.707,0c0.194,0.195,0.194,0.513,0,0.707l-2.5,2.5
		l0,0C11.264,13.943,11.139,14,11,14h-0.003c-0.067,0-0.13-0.014-0.188-0.038c-0.058-0.024-0.113-0.062-0.162-0.108l-2.5-2.5
		c-0.194-0.194-0.194-0.512,0-0.707c0.195-0.194,0.513-0.194,0.707,0l1.646,1.646V7.5C10.5,7.224,10.725,7,11,7z M2.5,8
		C2.225,8,2,8.224,2,8.5C2,8.775,2.225,9,2.5,9H7c0.275,0,0.5-0.225,0.5-0.5C7.5,8.224,7.275,8,7,8H2.5z M2.5,12
		C2.225,12,2,12.225,2,12.5S2.225,13,2.5,13H6c0.275,0,0.5-0.225,0.5-0.5S6.275,12,6,12H2.5z"/>
</g>
</svg>
